<mxfile host="app.diagrams.net" modified="2022-04-15T13:08:43.002Z" agent="5.0 (Windows NT 10.0; Win64; x64) AppleWebKit/537.36 (KHTML, like Gecko) Chrome/100.0.4896.127 Safari/537.36" etag="r2VsVB9_9gL3sjRGwXR6" version="17.4.4" type="github">
  <diagram id="C5RBs43oDa-KdzZeNtuy" name="Page-1">
    <mxGraphModel dx="862" dy="795" grid="1" gridSize="10" guides="1" tooltips="1" connect="1" arrows="1" fold="1" page="1" pageScale="1" pageWidth="827" pageHeight="1169" math="0" shadow="0">
      <root>
        <mxCell id="WIyWlLk6GJQsqaUBKTNV-0" />
        <mxCell id="WIyWlLk6GJQsqaUBKTNV-1" parent="WIyWlLk6GJQsqaUBKTNV-0" />
        <mxCell id="GzwXO7MtgeSFmFhWoJZB-12" value="GameManeger" style="swimlane;fontStyle=2;align=center;verticalAlign=top;childLayout=stackLayout;horizontal=1;startSize=26;horizontalStack=0;resizeParent=1;resizeLast=0;collapsible=1;marginBottom=0;rounded=0;shadow=0;strokeWidth=1;" vertex="1" parent="WIyWlLk6GJQsqaUBKTNV-1">
          <mxGeometry x="170" y="30" width="170" height="294" as="geometry">
            <mxRectangle x="230" y="140" width="160" height="26" as="alternateBounds" />
          </mxGeometry>
        </mxCell>
        <mxCell id="GzwXO7MtgeSFmFhWoJZB-13" value="+ instance : GmaeManager" style="text;align=left;verticalAlign=top;spacingLeft=4;spacingRight=4;overflow=hidden;rotatable=0;points=[[0,0.5],[1,0.5]];portConstraint=eastwest;rounded=0;shadow=0;html=0;" vertex="1" parent="GzwXO7MtgeSFmFhWoJZB-12">
          <mxGeometry y="26" width="170" height="26" as="geometry" />
        </mxCell>
        <mxCell id="GzwXO7MtgeSFmFhWoJZB-14" value="+ player : Player" style="text;align=left;verticalAlign=top;spacingLeft=4;spacingRight=4;overflow=hidden;rotatable=0;points=[[0,0.5],[1,0.5]];portConstraint=eastwest;" vertex="1" parent="GzwXO7MtgeSFmFhWoJZB-12">
          <mxGeometry y="52" width="170" height="26" as="geometry" />
        </mxCell>
        <mxCell id="GzwXO7MtgeSFmFhWoJZB-15" value="+ Score : int " style="text;align=left;verticalAlign=top;spacingLeft=4;spacingRight=4;overflow=hidden;rotatable=0;points=[[0,0.5],[1,0.5]];portConstraint=eastwest;rounded=0;shadow=0;html=0;" vertex="1" parent="GzwXO7MtgeSFmFhWoJZB-12">
          <mxGeometry y="78" width="170" height="26" as="geometry" />
        </mxCell>
        <mxCell id="GzwXO7MtgeSFmFhWoJZB-16" value="+ Timelimit : float" style="text;align=left;verticalAlign=top;spacingLeft=4;spacingRight=4;overflow=hidden;rotatable=0;points=[[0,0.5],[1,0.5]];portConstraint=eastwest;rounded=0;shadow=0;html=0;" vertex="1" parent="GzwXO7MtgeSFmFhWoJZB-12">
          <mxGeometry y="104" width="170" height="26" as="geometry" />
        </mxCell>
        <mxCell id="GzwXO7MtgeSFmFhWoJZB-17" value="+ Time : float" style="text;align=left;verticalAlign=top;spacingLeft=4;spacingRight=4;overflow=hidden;rotatable=0;points=[[0,0.5],[1,0.5]];portConstraint=eastwest;rounded=0;shadow=0;html=0;" vertex="1" parent="GzwXO7MtgeSFmFhWoJZB-12">
          <mxGeometry y="130" width="170" height="26" as="geometry" />
        </mxCell>
        <mxCell id="GzwXO7MtgeSFmFhWoJZB-18" value="" style="line;html=1;strokeWidth=1;align=left;verticalAlign=middle;spacingTop=-1;spacingLeft=3;spacingRight=3;rotatable=0;labelPosition=right;points=[];portConstraint=eastwest;" vertex="1" parent="GzwXO7MtgeSFmFhWoJZB-12">
          <mxGeometry y="156" width="170" height="8" as="geometry" />
        </mxCell>
        <mxCell id="GzwXO7MtgeSFmFhWoJZB-19" value="awake() &#xa;" style="text;align=left;verticalAlign=top;spacingLeft=4;spacingRight=4;overflow=hidden;rotatable=0;points=[[0,0.5],[1,0.5]];portConstraint=eastwest;" vertex="1" parent="GzwXO7MtgeSFmFhWoJZB-12">
          <mxGeometry y="164" width="170" height="26" as="geometry" />
        </mxCell>
        <mxCell id="GzwXO7MtgeSFmFhWoJZB-20" value="+ Timer() : void" style="text;align=left;verticalAlign=top;spacingLeft=4;spacingRight=4;overflow=hidden;rotatable=0;points=[[0,0.5],[1,0.5]];portConstraint=eastwest;" vertex="1" parent="GzwXO7MtgeSFmFhWoJZB-12">
          <mxGeometry y="190" width="170" height="26" as="geometry" />
        </mxCell>
        <mxCell id="GzwXO7MtgeSFmFhWoJZB-21" value="+ Gauge() : void" style="text;align=left;verticalAlign=top;spacingLeft=4;spacingRight=4;overflow=hidden;rotatable=0;points=[[0,0.5],[1,0.5]];portConstraint=eastwest;" vertex="1" parent="GzwXO7MtgeSFmFhWoJZB-12">
          <mxGeometry y="216" width="170" height="26" as="geometry" />
        </mxCell>
        <mxCell id="GzwXO7MtgeSFmFhWoJZB-22" value="+ LifeHUD(hp : int) : void" style="text;align=left;verticalAlign=top;spacingLeft=4;spacingRight=4;overflow=hidden;rotatable=0;points=[[0,0.5],[1,0.5]];portConstraint=eastwest;" vertex="1" parent="GzwXO7MtgeSFmFhWoJZB-12">
          <mxGeometry y="242" width="170" height="26" as="geometry" />
        </mxCell>
        <mxCell id="GzwXO7MtgeSFmFhWoJZB-23" value="+ GameOver() : void" style="text;align=left;verticalAlign=top;spacingLeft=4;spacingRight=4;overflow=hidden;rotatable=0;points=[[0,0.5],[1,0.5]];portConstraint=eastwest;" vertex="1" parent="GzwXO7MtgeSFmFhWoJZB-12">
          <mxGeometry y="268" width="170" height="26" as="geometry" />
        </mxCell>
        <mxCell id="GzwXO7MtgeSFmFhWoJZB-24" value="Player" style="swimlane;fontStyle=0;align=center;verticalAlign=top;childLayout=stackLayout;horizontal=1;startSize=26;horizontalStack=0;resizeParent=1;resizeLast=0;collapsible=1;marginBottom=0;rounded=0;shadow=0;strokeWidth=1;" vertex="1" parent="WIyWlLk6GJQsqaUBKTNV-1">
          <mxGeometry x="499" y="498" width="160" height="112" as="geometry">
            <mxRectangle x="130" y="380" width="160" height="26" as="alternateBounds" />
          </mxGeometry>
        </mxCell>
        <mxCell id="GzwXO7MtgeSFmFhWoJZB-25" value="+ HP : int" style="text;align=left;verticalAlign=top;spacingLeft=4;spacingRight=4;overflow=hidden;rotatable=0;points=[[0,0.5],[1,0.5]];portConstraint=eastwest;" vertex="1" parent="GzwXO7MtgeSFmFhWoJZB-24">
          <mxGeometry y="26" width="160" height="26" as="geometry" />
        </mxCell>
        <mxCell id="GzwXO7MtgeSFmFhWoJZB-26" value="" style="line;html=1;strokeWidth=1;align=left;verticalAlign=middle;spacingTop=-1;spacingLeft=3;spacingRight=3;rotatable=0;labelPosition=right;points=[];portConstraint=eastwest;" vertex="1" parent="GzwXO7MtgeSFmFhWoJZB-24">
          <mxGeometry y="52" width="160" height="8" as="geometry" />
        </mxCell>
        <mxCell id="GzwXO7MtgeSFmFhWoJZB-27" value="RayCasting" style="text;align=left;verticalAlign=top;spacingLeft=4;spacingRight=4;overflow=hidden;rotatable=0;points=[[0,0.5],[1,0.5]];portConstraint=eastwest;" vertex="1" parent="GzwXO7MtgeSFmFhWoJZB-24">
          <mxGeometry y="60" width="160" height="26" as="geometry" />
        </mxCell>
        <mxCell id="GzwXO7MtgeSFmFhWoJZB-28" value="." style="text;align=left;verticalAlign=top;spacingLeft=4;spacingRight=4;overflow=hidden;rotatable=0;points=[[0,0.5],[1,0.5]];portConstraint=eastwest;" vertex="1" parent="GzwXO7MtgeSFmFhWoJZB-24">
          <mxGeometry y="86" width="160" height="26" as="geometry" />
        </mxCell>
        <mxCell id="GzwXO7MtgeSFmFhWoJZB-29" value="Mosquito" style="swimlane;fontStyle=0;align=center;verticalAlign=top;childLayout=stackLayout;horizontal=1;startSize=26;horizontalStack=0;resizeParent=1;resizeLast=0;collapsible=1;marginBottom=0;rounded=0;shadow=0;strokeWidth=1;" vertex="1" parent="WIyWlLk6GJQsqaUBKTNV-1">
          <mxGeometry x="129" y="438" width="190" height="120" as="geometry">
            <mxRectangle x="340" y="380" width="170" height="26" as="alternateBounds" />
          </mxGeometry>
        </mxCell>
        <mxCell id="GzwXO7MtgeSFmFhWoJZB-30" value="+ Mosquito_HP : int" style="text;align=left;verticalAlign=top;spacingLeft=4;spacingRight=4;overflow=hidden;rotatable=0;points=[[0,0.5],[1,0.5]];portConstraint=eastwest;" vertex="1" parent="GzwXO7MtgeSFmFhWoJZB-29">
          <mxGeometry y="26" width="190" height="26" as="geometry" />
        </mxCell>
        <mxCell id="GzwXO7MtgeSFmFhWoJZB-31" value="+ Damage : int" style="text;align=left;verticalAlign=top;spacingLeft=4;spacingRight=4;overflow=hidden;rotatable=0;points=[[0,0.5],[1,0.5]];portConstraint=eastwest;" vertex="1" parent="GzwXO7MtgeSFmFhWoJZB-29">
          <mxGeometry y="52" width="190" height="26" as="geometry" />
        </mxCell>
        <mxCell id="GzwXO7MtgeSFmFhWoJZB-32" value="" style="line;html=1;strokeWidth=1;align=left;verticalAlign=middle;spacingTop=-1;spacingLeft=3;spacingRight=3;rotatable=0;labelPosition=right;points=[];portConstraint=eastwest;" vertex="1" parent="GzwXO7MtgeSFmFhWoJZB-29">
          <mxGeometry y="78" width="190" height="8" as="geometry" />
        </mxCell>
        <mxCell id="GzwXO7MtgeSFmFhWoJZB-33" value="+ attack() : void" style="text;align=left;verticalAlign=top;spacingLeft=4;spacingRight=4;overflow=hidden;rotatable=0;points=[[0,0.5],[1,0.5]];portConstraint=eastwest;" vertex="1" parent="GzwXO7MtgeSFmFhWoJZB-29">
          <mxGeometry y="86" width="190" height="26" as="geometry" />
        </mxCell>
        <mxCell id="GzwXO7MtgeSFmFhWoJZB-34" value="Spawner" style="swimlane;fontStyle=0;align=center;verticalAlign=top;childLayout=stackLayout;horizontal=1;startSize=26;horizontalStack=0;resizeParent=1;resizeLast=0;collapsible=1;marginBottom=0;rounded=0;shadow=0;strokeWidth=1;" vertex="1" parent="WIyWlLk6GJQsqaUBKTNV-1">
          <mxGeometry x="514" y="108" width="205" height="172" as="geometry">
            <mxRectangle x="550" y="140" width="160" height="26" as="alternateBounds" />
          </mxGeometry>
        </mxCell>
        <mxCell id="GzwXO7MtgeSFmFhWoJZB-35" value="+ MosquitoPrefab : GameObject[]" style="text;align=left;verticalAlign=top;spacingLeft=4;spacingRight=4;overflow=hidden;rotatable=0;points=[[0,0.5],[1,0.5]];portConstraint=eastwest;rounded=0;shadow=0;html=0;" vertex="1" parent="GzwXO7MtgeSFmFhWoJZB-34">
          <mxGeometry y="26" width="205" height="26" as="geometry" />
        </mxCell>
        <mxCell id="GzwXO7MtgeSFmFhWoJZB-36" value="+ Mosquitos : Mosquito[]" style="text;align=left;verticalAlign=top;spacingLeft=4;spacingRight=4;overflow=hidden;rotatable=0;points=[[0,0.5],[1,0.5]];portConstraint=eastwest;" vertex="1" parent="GzwXO7MtgeSFmFhWoJZB-34">
          <mxGeometry y="52" width="205" height="26" as="geometry" />
        </mxCell>
        <mxCell id="GzwXO7MtgeSFmFhWoJZB-37" value="spawnEnable : bool" style="text;align=left;verticalAlign=top;spacingLeft=4;spacingRight=4;overflow=hidden;rotatable=0;points=[[0,0.5],[1,0.5]];portConstraint=eastwest;rounded=0;shadow=0;html=0;" vertex="1" parent="GzwXO7MtgeSFmFhWoJZB-34">
          <mxGeometry y="78" width="205" height="26" as="geometry" />
        </mxCell>
        <mxCell id="GzwXO7MtgeSFmFhWoJZB-38" value="" style="line;html=1;strokeWidth=1;align=left;verticalAlign=middle;spacingTop=-1;spacingLeft=3;spacingRight=3;rotatable=0;labelPosition=right;points=[];portConstraint=eastwest;" vertex="1" parent="GzwXO7MtgeSFmFhWoJZB-34">
          <mxGeometry y="104" width="205" height="8" as="geometry" />
        </mxCell>
        <mxCell id="GzwXO7MtgeSFmFhWoJZB-39" value="+ spawnMosquito() : void" style="text;align=left;verticalAlign=top;spacingLeft=4;spacingRight=4;overflow=hidden;rotatable=0;points=[[0,0.5],[1,0.5]];portConstraint=eastwest;" vertex="1" parent="GzwXO7MtgeSFmFhWoJZB-34">
          <mxGeometry y="112" width="205" height="26" as="geometry" />
        </mxCell>
        <mxCell id="GzwXO7MtgeSFmFhWoJZB-40" value="+ destroyMosquito() : void" style="text;align=left;verticalAlign=top;spacingLeft=4;spacingRight=4;overflow=hidden;rotatable=0;points=[[0,0.5],[1,0.5]];portConstraint=eastwest;" vertex="1" parent="GzwXO7MtgeSFmFhWoJZB-34">
          <mxGeometry y="138" width="205" height="26" as="geometry" />
        </mxCell>
        <mxCell id="GzwXO7MtgeSFmFhWoJZB-41" style="edgeStyle=orthogonalEdgeStyle;rounded=0;orthogonalLoop=1;jettySize=auto;html=1;entryX=0;entryY=0.5;entryDx=0;entryDy=0;endArrow=open;endFill=0;" edge="1" parent="WIyWlLk6GJQsqaUBKTNV-1" source="GzwXO7MtgeSFmFhWoJZB-20" target="GzwXO7MtgeSFmFhWoJZB-33">
          <mxGeometry relative="1" as="geometry" />
        </mxCell>
        <mxCell id="GzwXO7MtgeSFmFhWoJZB-42" style="edgeStyle=orthogonalEdgeStyle;rounded=0;orthogonalLoop=1;jettySize=auto;html=1;entryX=0;entryY=0.5;entryDx=0;entryDy=0;endArrow=open;endFill=0;" edge="1" parent="WIyWlLk6GJQsqaUBKTNV-1" source="GzwXO7MtgeSFmFhWoJZB-33" target="GzwXO7MtgeSFmFhWoJZB-25">
          <mxGeometry relative="1" as="geometry" />
        </mxCell>
        <mxCell id="GzwXO7MtgeSFmFhWoJZB-43" value="if) Time : 0" style="text;html=1;align=center;verticalAlign=middle;resizable=0;points=[];autosize=1;strokeColor=none;fillColor=none;" vertex="1" parent="WIyWlLk6GJQsqaUBKTNV-1">
          <mxGeometry x="93" y="210" width="70" height="20" as="geometry" />
        </mxCell>
        <mxCell id="GzwXO7MtgeSFmFhWoJZB-44" style="edgeStyle=orthogonalEdgeStyle;rounded=0;orthogonalLoop=1;jettySize=auto;html=1;endArrow=open;endFill=0;" edge="1" parent="WIyWlLk6GJQsqaUBKTNV-1" source="GzwXO7MtgeSFmFhWoJZB-22" target="GzwXO7MtgeSFmFhWoJZB-25">
          <mxGeometry relative="1" as="geometry">
            <Array as="points">
              <mxPoint x="420" y="285" />
              <mxPoint x="420" y="537" />
            </Array>
          </mxGeometry>
        </mxCell>
        <mxCell id="GzwXO7MtgeSFmFhWoJZB-45" style="edgeStyle=orthogonalEdgeStyle;rounded=0;orthogonalLoop=1;jettySize=auto;html=1;endArrow=open;endFill=0;" edge="1" parent="WIyWlLk6GJQsqaUBKTNV-1" source="GzwXO7MtgeSFmFhWoJZB-20" target="GzwXO7MtgeSFmFhWoJZB-39">
          <mxGeometry relative="1" as="geometry" />
        </mxCell>
        <mxCell id="GzwXO7MtgeSFmFhWoJZB-46" value="if) Time : 0" style="text;html=1;align=center;verticalAlign=middle;resizable=0;points=[];autosize=1;strokeColor=none;fillColor=none;" vertex="1" parent="WIyWlLk6GJQsqaUBKTNV-1">
          <mxGeometry x="346" y="238" width="70" height="20" as="geometry" />
        </mxCell>
        <mxCell id="GzwXO7MtgeSFmFhWoJZB-47" value="After attack occur" style="text;html=1;align=center;verticalAlign=middle;resizable=0;points=[];autosize=1;strokeColor=none;fillColor=none;" vertex="1" parent="WIyWlLk6GJQsqaUBKTNV-1">
          <mxGeometry x="210.5" y="380" width="110" height="20" as="geometry" />
        </mxCell>
        <mxCell id="GzwXO7MtgeSFmFhWoJZB-48" style="edgeStyle=orthogonalEdgeStyle;rounded=0;orthogonalLoop=1;jettySize=auto;html=1;endArrow=open;endFill=0;" edge="1" parent="WIyWlLk6GJQsqaUBKTNV-1" source="GzwXO7MtgeSFmFhWoJZB-33" target="GzwXO7MtgeSFmFhWoJZB-22">
          <mxGeometry relative="1" as="geometry" />
        </mxCell>
        <mxCell id="GzwXO7MtgeSFmFhWoJZB-49" style="edgeStyle=orthogonalEdgeStyle;rounded=0;orthogonalLoop=1;jettySize=auto;html=1;entryX=0;entryY=0.5;entryDx=0;entryDy=0;endArrow=open;endFill=0;" edge="1" parent="WIyWlLk6GJQsqaUBKTNV-1" source="GzwXO7MtgeSFmFhWoJZB-20" target="GzwXO7MtgeSFmFhWoJZB-40">
          <mxGeometry relative="1" as="geometry" />
        </mxCell>
        <mxCell id="GzwXO7MtgeSFmFhWoJZB-50" style="edgeStyle=orthogonalEdgeStyle;rounded=0;orthogonalLoop=1;jettySize=auto;html=1;endArrow=open;endFill=0;" edge="1" parent="WIyWlLk6GJQsqaUBKTNV-1" source="GzwXO7MtgeSFmFhWoJZB-19" target="GzwXO7MtgeSFmFhWoJZB-39">
          <mxGeometry relative="1" as="geometry">
            <mxPoint x="460" y="178" as="targetPoint" />
          </mxGeometry>
        </mxCell>
        <mxCell id="GzwXO7MtgeSFmFhWoJZB-51" value="only spawn" style="text;html=1;align=center;verticalAlign=middle;resizable=0;points=[];autosize=1;strokeColor=none;fillColor=none;" vertex="1" parent="WIyWlLk6GJQsqaUBKTNV-1">
          <mxGeometry x="341" y="183" width="80" height="20" as="geometry" />
        </mxCell>
        <mxCell id="GzwXO7MtgeSFmFhWoJZB-52" style="edgeStyle=orthogonalEdgeStyle;rounded=0;orthogonalLoop=1;jettySize=auto;html=1;exitX=1;exitY=0.5;exitDx=0;exitDy=0;endArrow=none;endFill=0;strokeWidth=1;startArrow=open;startFill=0;" edge="1" parent="WIyWlLk6GJQsqaUBKTNV-1" source="GzwXO7MtgeSFmFhWoJZB-23">
          <mxGeometry relative="1" as="geometry">
            <mxPoint x="420" y="311.0000000000002" as="targetPoint" />
          </mxGeometry>
        </mxCell>
        <mxCell id="GzwXO7MtgeSFmFhWoJZB-53" value="if) HP &amp;lt;= 0" style="text;html=1;align=center;verticalAlign=middle;resizable=0;points=[];autosize=1;strokeColor=none;fillColor=none;" vertex="1" parent="WIyWlLk6GJQsqaUBKTNV-1">
          <mxGeometry x="346" y="310" width="70" height="20" as="geometry" />
        </mxCell>
      </root>
    </mxGraphModel>
  </diagram>
</mxfile>
